<?xml version="1.0" encoding="utf-8"?>
<!-- Generator: Adobe Illustrator 20.0.0, SVG Export Plug-In . SVG Version: 6.00 Build 0)  -->
<svg version="1.1" xmlns="http://www.w3.org/2000/svg" xmlns:xlink="http://www.w3.org/1999/xlink" x="0px" y="0px"
	 viewBox="0 0 318.5 155.5" style="enable-background:new 0 0 318.5 155.5;" xml:space="preserve">
<style type="text/css">
	.st0{display:none;}
	.st1{display:inline;}
	.st2{fill:none;stroke:#201600;stroke-width:2.5223;stroke-miterlimit:2.6131;}
	.st3{fill-rule:evenodd;clip-rule:evenodd;fill:#EE0616;}
	.st4{fill-rule:evenodd;clip-rule:evenodd;fill:#201600;}
	.st5{fill:none;stroke:#201600;stroke-width:0.5669;stroke-miterlimit:2.6131;}
	.st6{fill:#FFFFFF;stroke:#FFFFFF;stroke-width:1.1339;stroke-miterlimit:2.6131;}
	.st7{fill:none;stroke:#201600;stroke-width:1.1339;stroke-miterlimit:2.6131;}
	.st8{display:none;fill:none;stroke:#201600;stroke-width:2.5223;stroke-miterlimit:2.6131;}
	.st9{fill-rule:evenodd;clip-rule:evenodd;fill:#FFFFFF;}
	.st10{fill:none;stroke:#FFFFFF;stroke-miterlimit:2.6131;}
	.st11{display:none;fill:#FFFFFF;stroke:#FFFFFF;stroke-width:1.1339;stroke-miterlimit:2.6131;}
	.st12{display:none;fill:none;stroke:#201600;stroke-miterlimit:2.6131;}
	.st13{display:none;fill:none;stroke:#FFFFFF;stroke-miterlimit:2.6131;}
	.st14{fill:#FFFFFF;}
	.st15{fill-rule:evenodd;clip-rule:evenodd;fill:#EE0616;stroke:#FCFCFC;stroke-miterlimit:2.6131;}
	.st16{fill:none;stroke:#FFFFFF;stroke-width:2;stroke-miterlimit:2.6131;}
	.st17{fill-rule:evenodd;clip-rule:evenodd;fill:#EE0616;stroke:#FFFFFF;stroke-miterlimit:2.6131;}
	.st18{fill:none;stroke:#FFFFFF;stroke-width:1.1339;stroke-miterlimit:2.6131;}
	.st19{fill-rule:evenodd;clip-rule:evenodd;fill:#EE0616;stroke:#FFFFFF;stroke-miterlimit:10;}
</style>
<g id="Layer_2">
</g>
<g id="Layer_1" class="st0">
	<g class="st1">
		<path class="st2" d="M-710.1,18.3c34.6,38.8,4.5,38-6.7,59.1C-756.4,48.3-710.9,39.8-710.1,18.3L-710.1,18.3z"/>
		<path class="st3" d="M-710.1,18.3c34.6,38.8,4.5,38-6.7,59.1C-756.4,48.3-710.9,39.8-710.1,18.3L-710.1,18.3z"/>
		<path class="st2" d="M-726.5,37.7c-47,21.9-41.3,43.3,12.4,44.3C-742.4,68.4-741.1,54.2-726.5,37.7L-726.5,37.7z"/>
		<path class="st3" d="M-726.5,37.7c-47,21.9-41.3,43.3,12.4,44.3C-742.4,68.4-741.1,54.2-726.5,37.7L-726.5,37.7z"/>
		<path class="st2" d="M-692.3,41.9c21.1,9.3,13.6,33-1.3,35.3c-6.1,0.9-13.3,1.7-18.5,4.4C-711,67.3-681.9,59.3-692.3,41.9
			L-692.3,41.9z"/>
		<path class="st3" d="M-692.3,41.9c21.1,9.3,13.6,33-1.3,35.3c-6.1,0.9-13.3,1.7-18.5,4.4C-711,67.3-681.9,59.3-692.3,41.9
			L-692.3,41.9z"/>
		<path class="st4" d="M-644.3,73.9c33.1,0.9,63.3,7.6,84.3,28.7c6.4,9.6,5.5,18.6-2.8,27.1c-58.6,39.4-183,31.2-225.1,3.3
			c-15.2-10.7-14.2-11.8,2-7.1c71.3,32.6,159.3,28.2,215.6-0.5c8.4-6.8,6.9-14.9-1.6-22.4c-17.1-14.6-43-19.7-72.7-20.6L-644.3,73.9
			L-644.3,73.9z"/>
		<path class="st5" d="M-644.4,74c-2.7-2.5-5.5-2.5-8.5-0.2c-2.6-2.8-6.1-3.2-9,0l-7.9-0.3c-3.7-3.7-7.6-3.1-11.9,1.2l-0.3,6.7
			c3.2,4.6,7.4,5,11.6,2.7l8.5,0.3c2.4,1.6,5.2,1.9,8.8-0.5c3.7,2,6.6,1.8,8.5-1.7L-644.4,74L-644.4,74z M-674.3,105.5
			c-0.4,7-7.5,11.6-8.8,7.5C-682.7,106.2-676.2,102.6-674.3,105.5L-674.3,105.5z M-670.2,83.9l0.1-10.3 M-661.7,73.6l-0.1,10.3
			 M-652.8,73.8l0,9.9"/>
		<polygon class="st6" points="-776.9,89.5 -803.7,89.3 -829.3,89.3 -839.8,127.7 -812.5,127.9 -788.9,127.9 -788.9,127.9 
			-767.8,127.7 -762.4,127.9 -745.5,127.9 -743.9,127.9 -721.7,127.9 -721.6,127.7 -694.6,127.9 -695.5,125.5 -694.2,126.2 
			-692.2,127.1 -690,127.8 -687.9,128.2 -685.6,128.5 -683.3,128.6 -681,128.6 -678.7,128.4 -676.3,128 -674,127.4 -671.7,126.7 
			-669.5,125.8 -667.4,124.8 -665.3,123.5 -663.3,122.1 -663.3,122 -664.8,127.6 -644,127.6 -639.5,127.9 -621.7,127.9 
			-621.7,127.8 -601.2,127.8 -601.2,127.6 -584.6,127.6 -580.1,127.9 -562.3,127.9 -562.3,127.8 -541.8,127.8 -531.4,89.4 
			-567.6,89.4 -590.8,89.4 -590.8,89.4 -627,89.4 -654.5,89.4 -656.8,98 -656.9,97.7 -658,96.5 -659.1,95.5 -660.4,94.6 
			-661.8,93.8 -663.2,93.2 -664.7,92.6 -666.3,92.1 -668,91.8 -669.6,91.5 -671.4,91.3 -673.1,91.2 -674.9,91.1 -676.7,91.2 
			-678.5,91.3 -680.4,91.6 -682.2,91.9 -684,92.4 -685.6,92.8 -682.1,89.3 -716.1,89.3 -733.2,89.4 -733.2,89.2 -757.9,89.2 
			-757.9,89.4 -759.6,89.4 -777,89.7 -776.9,89.5 		"/>
		<polygon class="st7" points="-826.4,93.1 -808.9,93.1 -815.5,114.8 -803.7,93.1 -781.8,93.2 -789.7,124.1 -806.3,124.1 
			-800.5,101.9 -812.5,124.1 -834.9,124 -826.4,93.1 		"/>
		<polygon class="st3" points="-826.4,93.1 -808.9,93.1 -815.5,114.8 -803.7,93.1 -781.8,93.2 -789.7,124.1 -806.3,124.1 
			-800.5,101.9 -812.5,124.1 -834.9,124 -826.4,93.1 		"/>
		<polygon class="st7" points="-776,93.4 -784,124.1 -767.8,124 -765.1,112.5 -760.2,112.6 -762.3,124.1 -746.8,124.1 -738.1,93 
			-754.8,93 -757.1,103.4 -761.8,103.5 -759.5,93.2 -776,93.4 		"/>
		<polygon class="st3" points="-776,93.4 -784,124.1 -767.8,124 -765.1,112.5 -760.2,112.6 -762.3,124.1 -746.8,124.1 -738.1,93 
			-754.8,93 -757.1,103.4 -761.8,103.5 -759.5,93.2 -776,93.4 		"/>
		<polygon class="st7" points="-733,93.2 -740.7,124.1 -724.5,124.1 -720.6,110.8 -719.9,124 -700,124.1 -705.9,108.3 -691.1,93.1 
			-710.5,93.1 -718.9,105.9 -716.1,93.1 -733,93.2 		"/>
		<polygon class="st3" points="-733,93.2 -740.7,124.1 -724.5,124.1 -720.6,110.8 -719.9,124 -700,124.1 -705.9,108.3 -691.1,93.1 
			-710.5,93.1 -718.9,105.9 -716.1,93.1 -733,93.2 		"/>
		<polygon class="st7" points="-651.6,93.2 -659.9,123.9 -643.9,123.9 -637.8,100.6 -639.4,124.1 -624.2,124.1 -614.1,101.2 
			-619.8,124 -604.1,124 -595.7,93.2 -620.6,93.2 -630.4,118.8 -627,93.2 -651.6,93.2 		"/>
		<polygon class="st3" points="-651.6,93.2 -659.9,123.9 -643.9,123.9 -637.8,100.6 -639.4,124.1 -624.2,124.1 -614.1,101.2 
			-619.8,124 -604.1,124 -595.7,93.2 -620.6,93.2 -630.4,118.8 -627,93.2 -651.6,93.2 		"/>
		<polygon class="st7" points="-592.2,93.2 -600.4,123.9 -584.5,123.9 -578.4,100.6 -580,124.1 -564.8,124.1 -554.7,101.2 
			-560.4,124 -544.7,124 -536.3,93.2 -561.2,93.2 -571,118.8 -567.6,93.2 -592.2,93.2 		"/>
		<polygon class="st3" points="-592.2,93.2 -600.4,123.9 -584.5,123.9 -578.4,100.6 -580,124.1 -564.8,124.1 -554.7,101.2 
			-560.4,124 -544.7,124 -536.3,93.2 -561.2,93.2 -571,118.8 -567.6,93.2 -592.2,93.2 		"/>
		<path class="st7" d="M-698.8,109.6c5.8-18,36-18,39.9-7.7C-655,129.1-703.5,132.8-698.8,109.6L-698.8,109.6z M-674.3,105.5
			c-0.4,7-7.5,11.6-8.8,7.5C-682.7,106.2-676.2,102.6-674.3,105.5L-674.3,105.5z"/>
		<path class="st3" d="M-698.8,109.6c5.8-18,36-18,39.9-7.7C-655,129.1-703.5,132.8-698.8,109.6L-698.8,109.6z M-674.3,105.5
			c-0.4,7-7.5,11.6-8.8,7.5C-682.7,106.2-676.2,102.6-674.3,105.5L-674.3,105.5z"/>
	</g>
	<g class="st1">
		<path class="st8" d="M-280.6,12.4c34.6,38.8,4.5,38-6.7,59.1C-326.9,42.4-281.5,33.8-280.6,12.4L-280.6,12.4z"/>
		<g>
			<path class="st3" d="M-280.6,12.4c34.6,38.8,4.5,38-6.7,59.1C-326.9,42.4-281.5,33.8-280.6,12.4L-280.6,12.4z"/>
		</g>
		<path class="st8" d="M-297,31.7C-344,53.6-338.3,75-284.6,76C-313,62.5-311.6,48.3-297,31.7L-297,31.7z"/>
		<g>
			<path class="st3" d="M-297,31.7C-344,53.6-338.3,75-284.6,76C-313,62.5-311.6,48.3-297,31.7L-297,31.7z"/>
		</g>
		<path class="st8" d="M-262.9,35.9c21.1,9.3,13.6,33-1.3,35.3c-6.1,0.9-13.3,1.7-18.5,4.4C-281.5,61.4-252.5,53.4-262.9,35.9
			L-262.9,35.9z"/>
		<g>
			<path class="st3" d="M-262.9,35.9c21.1,9.3,13.6,33-1.3,35.3c-6.1,0.9-13.3,1.7-18.5,4.4C-281.5,61.4-252.5,53.4-262.9,35.9
				L-262.9,35.9z"/>
		</g>
		<path class="st9" d="M-214.9,68c33.1,0.9,63.3,7.6,84.3,28.7c6.4,9.6,5.5,18.6-2.8,27.1c-58.6,39.4-183,31.2-225.1,3.3
			c-15.2-10.7-14.2-11.8,2-7.1c71.3,32.6,159.3,28.2,215.6-0.5c8.4-6.8,6.9-14.9-1.6-22.4c-17.1-14.6-43-19.7-72.7-20.6L-214.9,68
			L-214.9,68z"/>
		<path class="st10" d="M-214.9,68.1c-2.7-2.5-5.5-2.5-8.5-0.2c-2.6-2.8-6.1-3.2-9,0l-7.9-0.3c-3.7-3.7-7.6-3.1-11.9,1.2l-0.3,6.7
			c3.2,4.6,7.4,5,11.6,2.7l8.5,0.3c2.4,1.6,5.2,1.9,8.8-0.5c3.7,2,6.6,1.8,8.5-1.7L-214.9,68.1L-214.9,68.1z M-240.8,77.9l0.1-10.3
			 M-232.3,67.7l-0.1,10.3 M-223.3,67.9l0,9.9"/>
		<polygon class="st11" points="-347.5,83.5 -374.2,83.4 -399.9,83.4 -410.3,121.8 -383,121.9 -359.5,121.9 -359.5,122 
			-338.4,121.8 -332.9,121.9 -316.1,121.9 -314.4,121.9 -292.2,121.9 -292.2,121.8 -265.2,121.9 -266.1,119.5 -264.7,120.3 
			-262.7,121.2 -260.6,121.8 -258.4,122.3 -256.2,122.6 -253.9,122.7 -251.5,122.7 -249.2,122.4 -246.9,122 -244.6,121.5 
			-242.3,120.8 -240.1,119.9 -237.9,118.8 -235.8,117.6 -233.9,116.2 -233.8,116.1 -235.3,121.7 -214.6,121.7 -210.1,121.9 
			-192.2,121.9 -192.2,121.8 -171.8,121.8 -171.7,121.7 -155.1,121.7 -150.6,121.9 -132.8,121.9 -132.8,121.8 -112.4,121.8 
			-101.9,83.5 -138.2,83.5 -161.3,83.5 -161.3,83.5 -197.6,83.5 -225,83.5 -227.3,92 -227.5,91.8 -228.5,90.6 -229.7,89.6 
			-231,88.7 -232.3,87.9 -233.8,87.2 -235.3,86.7 -236.9,86.2 -238.5,85.8 -240.2,85.5 -241.9,85.3 -243.7,85.2 -245.4,85.2 
			-247.3,85.2 -249.1,85.4 -250.9,85.7 -252.7,86 -254.6,86.4 -256.1,86.9 -252.7,83.4 -286.6,83.4 -303.8,83.5 -303.7,83.3 
			-328.4,83.3 -328.4,83.5 -330.1,83.5 -347.5,83.7 -347.5,83.5 		"/>
		<polygon class="st12" points="-397,87.1 -379.5,87.1 -386.1,108.8 -374.2,87.1 -352.3,87.2 -360.3,118.2 -376.9,118.2 -371.1,96 
			-383,118.2 -405.4,118.1 -397,87.1 		"/>
		<g>
			<polygon class="st3" points="-397,87.1 -379.5,87.1 -386.1,108.8 -374.2,87.1 -352.3,87.2 -360.3,118.2 -376.9,118.2 -371.1,96 
				-383,118.2 -405.4,118.1 -397,87.1 			"/>
		</g>
		<polygon class="st12" points="-346.5,87.5 -354.6,118.2 -338.3,118.1 -335.6,106.6 -330.7,106.7 -332.9,118.2 -317.3,118.2 
			-308.7,87 -325.4,87 -327.6,97.5 -332.3,97.6 -330,87.2 -346.5,87.5 		"/>
		<g>
			<polygon class="st3" points="-346.5,87.5 -354.6,118.2 -338.3,118.1 -335.6,106.6 -330.7,106.7 -332.9,118.2 -317.3,118.2 
				-308.7,87 -325.4,87 -327.6,97.5 -332.3,97.6 -330,87.2 -346.5,87.5 			"/>
		</g>
		<polygon class="st12" points="-303.5,87.2 -311.3,118.2 -295,118.2 -291.2,104.9 -290.5,118.1 -270.6,118.2 -276.5,102.4 
			-261.6,87.1 -281,87.1 -289.4,100 -286.6,87.1 -303.5,87.2 		"/>
		<g>
			<polygon class="st3" points="-303.5,87.2 -311.3,118.2 -295,118.2 -291.2,104.9 -290.5,118.1 -270.6,118.2 -276.5,102.4 
				-261.6,87.1 -281,87.1 -289.4,100 -286.6,87.1 -303.5,87.2 			"/>
		</g>
		<polygon class="st12" points="-222.1,87.3 -230.4,117.9 -214.4,117.9 -208.3,94.6 -209.9,118.2 -194.7,118.2 -184.7,95.3 
			-190.3,118.1 -174.6,118.1 -166.3,87.2 -191.1,87.2 -200.9,112.8 -197.6,87.2 -222.1,87.3 		"/>
		<g>
			<polygon class="st3" points="-222.1,87.3 -230.4,117.9 -214.4,117.9 -208.3,94.6 -209.9,118.2 -194.7,118.2 -184.7,95.3 
				-190.3,118.1 -174.6,118.1 -166.3,87.2 -191.1,87.2 -200.9,112.8 -197.6,87.2 -222.1,87.3 			"/>
		</g>
		<polygon class="st12" points="-162.7,87.3 -171,117.9 -155,117.9 -148.9,94.6 -150.5,118.2 -135.3,118.2 -125.3,95.3 
			-130.9,118.1 -115.2,118.1 -106.8,87.2 -131.7,87.2 -141.5,112.8 -138.2,87.2 -162.7,87.3 		"/>
		<g>
			<polygon class="st3" points="-162.7,87.3 -171,117.9 -155,117.9 -148.9,94.6 -150.5,118.2 -135.3,118.2 -125.3,95.3 
				-130.9,118.1 -115.2,118.1 -106.8,87.2 -131.7,87.2 -141.5,112.8 -138.2,87.2 -162.7,87.3 			"/>
		</g>
		<path class="st13" d="M-269.3,103.6c5.8-18,36-18,39.9-7.7C-225.5,123.2-274.1,126.9-269.3,103.6L-269.3,103.6z M-244.8,99.6
			c-0.4,7-7.5,11.6-8.8,7.5C-253.2,100.3-246.7,96.6-244.8,99.6L-244.8,99.6z"/>
		<g>
			<path class="st3" d="M-269.3,103.6c5.8-18,36-18,39.9-7.7C-225.5,123.2-274.1,126.9-269.3,103.6L-269.3,103.6z M-244.8,99.6
				c-0.4,7-7.5,11.6-8.8,7.5C-253.2,100.3-246.7,96.6-244.8,99.6L-244.8,99.6z"/>
		</g>
	</g>
	<g class="st1">
		<path class="st8" d="M133.5,12.8c34.6,38.8,4.5,38-6.7,59.1C87.1,42.8,132.6,34.2,133.5,12.8L133.5,12.8z"/>
		<g>
			<path class="st3" d="M126.7,73.9c-0.4,0-0.8-0.1-1.2-0.4c-10.8-8-16.4-15.2-16.9-22.1c-0.7-8.2,5.6-14.5,11.6-20.7
				c5.4-5.5,11-11.2,11.3-18c0-0.8,0.6-1.5,1.3-1.8c0.2-0.1,0.4-0.1,0.7-0.1c0.6,0,1.1,0.2,1.5,0.7c26.1,29.3,16.5,37.9,5.4,47.8
				c-4.3,3.9-8.8,7.9-11.8,13.6c-0.3,0.5-0.8,0.9-1.3,1C127,73.9,126.9,73.9,126.7,73.9z"/>
			<path class="st14" d="M133.5,12.8c34.6,38.8,4.5,38-6.7,59.1C87.1,42.8,132.6,34.2,133.5,12.8 M133.5,8.8c-0.5,0-0.9,0.1-1.3,0.2
				c-1.5,0.5-2.6,2-2.6,3.6c-0.2,6-5.3,11.2-10.7,16.7c-6.3,6.5-12.9,13.1-12.1,22.2c0.6,7.6,6.2,15.1,17.7,23.6
				c0.7,0.5,1.5,0.8,2.4,0.8c0.3,0,0.6,0,0.9-0.1c1.1-0.3,2.1-1,2.6-2c2.9-5.4,7.2-9.3,11.4-13c5.7-5.1,11.5-10.3,11.9-18.5
				c0.5-8.4-4.8-18.3-17.1-32.1C135.7,9.3,134.6,8.8,133.5,8.8L133.5,8.8z"/>
		</g>
		<path class="st8" d="M117.1,32.1c-47,21.9-41.3,43.3,12.4,44.3C101.1,62.9,102.4,48.7,117.1,32.1L117.1,32.1z"/>
		<g>
			<path class="st3" d="M129.4,78.4c-27.5-0.5-43.9-6.3-46-16.4c-2-9.6,9.6-20.9,32.8-31.7c0.3-0.1,0.6-0.2,0.8-0.2
				c0.6,0,1.2,0.3,1.6,0.8c0.6,0.8,0.5,1.8-0.1,2.5c-7.7,8.7-10.7,15.6-9.4,21.8c1.4,6.9,8.4,13.3,21.2,19.4
				c0.9,0.4,1.3,1.3,1.1,2.3C131.2,77.8,130.4,78.4,129.4,78.4C129.5,78.4,129.5,78.4,129.4,78.4z"/>
			<path class="st14" d="M117.1,32.1c-14.6,16.6-16,30.8,12.4,44.3C75.8,75.4,70.1,54,117.1,32.1 M117.1,28.1
				c-0.6,0-1.1,0.1-1.7,0.4C90.9,39.9,79.2,51.6,81.5,62.4c2.4,11.2,19,17.4,47.9,18c0,0,0.1,0,0.1,0c1.9,0,3.5-1.3,3.9-3.1
				c0.4-1.8-0.5-3.7-2.2-4.5c-12.1-5.7-18.8-11.8-20.1-18c-1.1-5.4,1.8-12,8.9-20.1c1.3-1.4,1.3-3.5,0.2-5
				C119.5,28.7,118.3,28.1,117.1,28.1L117.1,28.1z"/>
		</g>
		<path class="st8" d="M151.2,36.3c21.1,9.3,13.6,33-1.3,35.3c-6.1,0.9-13.3,1.7-18.5,4.4C132.5,61.8,161.6,53.8,151.2,36.3
			L151.2,36.3z"/>
		<g>
			<path class="st3" d="M131.3,78c-0.4,0-0.8-0.1-1.1-0.3c-0.6-0.4-0.9-1.1-0.9-1.8c0.6-6.6,6.4-11.9,12-17.1
				c9-8.2,14.2-13.8,9.2-22.1c-0.4-0.7-0.4-1.7,0.2-2.3c0.4-0.4,0.9-0.7,1.5-0.7c0.3,0,0.5,0.1,0.8,0.2c9.7,4.3,14.8,12.4,13.6,21.8
				c-1.2,9.1-8.2,16.7-16.5,18c-0.8,0.1-1.6,0.2-2.3,0.4c-5.3,0.8-11.3,1.7-15.6,3.8C132,77.9,131.6,78,131.3,78z"/>
			<path class="st14" d="M152.3,35.7c21.1,9.3,12.4,33.7-2.4,36c-6.1,0.9-13.3,1.7-18.5,4.4C132.5,61.8,162.7,53.1,152.3,35.7
				 M152.3,31.7c-1.1,0-2.2,0.5-3,1.3c-1.2,1.3-1.3,3.2-0.4,4.7c4,6.7,0.4,11.1-8.9,19.6c-5.9,5.4-12,10.9-12.7,18.4
				c-0.1,1.4,0.5,2.8,1.7,3.7c0.7,0.5,1.5,0.7,2.2,0.7c0.6,0,1.2-0.1,1.8-0.4c4-2,9.8-2.9,15-3.6c0.8-0.1,1.6-0.2,2.4-0.4
				c9.2-1.4,16.9-9.7,18.2-19.7c1.4-10.3-4.2-19.2-14.7-23.9C153.4,31.8,152.9,31.7,152.3,31.7L152.3,31.7z"/>
		</g>
		<path class="st9" d="M199.2,68.4c33.1,0.9,63.3,7.6,84.3,28.7c6.4,9.6,5.5,18.6-2.8,27.1c-58.6,39.4-183,31.2-225.1,3.3
			c-15.2-10.7-14.2-11.8,2-7.1C129,153,217,148.6,273.3,119.9c8.4-6.8,6.9-14.9-1.6-22.4c-17.1-14.6-43-19.7-72.7-20.6L199.2,68.4
			L199.2,68.4z"/>
		<path class="st10" d="M199.1,68.5c-2.7-2.5-5.5-2.5-8.5-0.2c-2.6-2.8-6.1-3.2-9,0l-7.9-0.3c-3.7-3.7-7.6-3.1-11.9,1.2l-0.3,6.7
			c3.2,4.6,7.4,5,11.6,2.7l8.5,0.3c2.4,1.6,5.2,1.9,8.8-0.5c3.7,2,6.6,1.8,8.5-1.7L199.1,68.5L199.1,68.5z M173.3,78.3l0.1-10.3
			 M181.8,68.1l-0.1,10.3 M190.7,68.3l0,9.9"/>
		<polygon class="st11" points="66.6,83.9 39.8,83.8 14.2,83.8 3.7,122.2 31,122.3 54.6,122.3 54.6,122.4 75.7,122.2 81.1,122.3 
			98,122.3 99.6,122.3 121.8,122.3 121.9,122.2 148.9,122.3 148,119.9 149.3,120.7 151.4,121.5 153.5,122.2 155.6,122.7 157.9,123 
			160.2,123.1 162.5,123 164.8,122.8 167.2,122.4 169.5,121.9 171.8,121.2 174,120.3 176.1,119.2 178.2,118 180.2,116.6 
			180.3,116.5 178.8,122.1 199.5,122.1 204,122.3 221.8,122.3 221.8,122.2 242.3,122.2 242.3,122.1 258.9,122.1 263.4,122.3 
			281.2,122.3 281.3,122.2 301.7,122.2 312.1,83.9 275.9,83.9 252.7,83.9 252.7,83.9 216.5,83.9 189,83.9 186.7,92.4 186.6,92.2 
			185.5,91 184.4,90 183.1,89.1 181.7,88.3 180.3,87.6 178.8,87.1 177.2,86.6 175.6,86.2 173.9,85.9 172.2,85.7 170.4,85.6 
			168.6,85.6 166.8,85.6 165,85.8 163.1,86.1 161.3,86.4 159.5,86.8 157.9,87.3 161.4,83.8 127.4,83.8 110.3,83.9 110.3,83.7 
			85.7,83.7 85.6,83.8 83.9,83.9 66.5,84.1 66.6,83.9 		"/>
		<polygon class="st12" points="17.1,87.5 34.6,87.5 28,109.2 39.8,87.5 61.7,87.6 53.8,118.6 37.2,118.6 43,96.4 31,118.6 
			8.7,118.4 17.1,87.5 		"/>
		<g>
			<path class="st3" d="M37.2,120.6c-0.6,0-1.2-0.3-1.6-0.8c-0.4-0.5-0.5-1.1-0.4-1.7l1.6-6l-4,7.4c-0.3,0.6-1,1.1-1.8,1.1
				c0,0-22.4-0.1-22.4-0.1c-0.6,0-1.2-0.3-1.6-0.8c-0.4-0.5-0.5-1.1-0.3-1.7L15.1,87c0.2-0.9,1-1.5,1.9-1.5h17.5
				c0.6,0,1.2,0.3,1.6,0.8c0.4,0.5,0.5,1.2,0.3,1.8l-0.9,3l2.5-4.5c0.4-0.6,1-1,1.8-1c0,0,22,0.1,22,0.1c0.6,0,1.2,0.3,1.6,0.8
				c0.4,0.5,0.5,1.1,0.4,1.7l-8,30.9c-0.2,0.9-1,1.5-1.9,1.5H37.2z"/>
			<path class="st14" d="M39.8,87.5l21.9,0.1l-8,30.9H37.2L43,96.4L31,118.6l-22.4-0.1l8.4-30.9h17.5L28,109.2L39.8,87.5 M39.8,83.5
				c-1,0-1.9,0.4-2.6,1c-0.7-0.6-1.6-1-2.6-1H17.1c-1.8,0-3.4,1.2-3.9,2.9l-8.4,30.9c-0.3,1.2-0.1,2.5,0.7,3.5
				c0.8,1,1.9,1.6,3.2,1.6l22.4,0.1c0,0,0,0,0,0c1.2,0,2.3-0.5,3.1-1.4c0.8,0.9,1.9,1.4,3.1,1.4h16.6c1.8,0,3.4-1.2,3.9-3l8-30.9
				c0.3-1.2,0-2.5-0.7-3.4c-0.8-1-1.9-1.6-3.1-1.6L39.8,83.5C39.8,83.5,39.8,83.5,39.8,83.5L39.8,83.5z"/>
		</g>
		<polygon class="st12" points="67.5,87.9 59.5,118.6 75.7,118.4 78.4,107 83.3,107.1 81.2,118.6 96.8,118.6 105.4,87.4 88.7,87.4 
			86.4,97.9 81.7,98 84,87.6 67.5,87.9 		"/>
		<g>
			<path class="st3" d="M81.2,120.6c-0.6,0-1.2-0.3-1.5-0.7s-0.5-1.1-0.4-1.6l1.7-9.2l-0.9,0l-2.4,9.9c-0.2,0.9-1,1.5-1.9,1.5
				c0,0-16.3,0.1-16.3,0.1c-0.6,0-1.2-0.3-1.6-0.8c-0.4-0.5-0.5-1.1-0.4-1.7l8.1-30.7c0.2-0.9,1-1.5,1.9-1.5c0,0,16.5-0.2,16.5-0.2
				c0.6,0,1.2,0.3,1.5,0.7c0.4,0.5,0.5,1.1,0.4,1.7l-1.7,7.9l0.5,0l1.9-8.9c0.2-0.9,1-1.6,2-1.6h16.7c0.6,0,1.2,0.3,1.6,0.8
				c0.4,0.5,0.5,1.1,0.3,1.7l-8.6,31.1c-0.2,0.9-1,1.5-1.9,1.5H81.2z"/>
			<path class="st14" d="M105.4,87.4l-8.6,31.1H81.2l2.2-11.5l-4.9-0.1l-2.7,11.5l-16.3,0.1l8.1-30.7L84,87.6L81.7,98l4.7-0.1
				l2.3-10.5H105.4 M105.4,83.4H88.7c-0.9,0-1.8,0.3-2.5,0.9c-0.6-0.4-1.4-0.6-2.2-0.6c0,0,0,0-0.1,0l-16.5,0.2
				c-1.8,0-3.4,1.2-3.8,3l-8.1,30.7c-0.3,1.2-0.1,2.5,0.7,3.5c0.8,1,1.9,1.5,3.2,1.5c0,0,0,0,0,0l16.3-0.1c1,0,1.9-0.4,2.6-1
				c0.7,0.7,1.7,1.1,2.8,1.1h15.6c1.8,0,3.4-1.2,3.9-2.9l8.6-31.1c0.3-1.2,0.1-2.5-0.7-3.5C107.8,84,106.6,83.4,105.4,83.4
				L105.4,83.4z"/>
		</g>
		<polygon class="st12" points="110.5,87.6 102.8,118.6 119,118.6 122.9,105.3 123.6,118.4 143.5,118.6 137.6,102.8 152.5,87.5 
			133,87.5 124.6,100.4 127.4,87.5 110.5,87.6 		"/>
		<g>
			<path class="st3" d="M123.6,120.4c-1.1,0-1.9-0.8-2-1.9l-0.1-1.3l-0.6,1.9c-0.2,0.9-1,1.4-1.9,1.4h-16.3c-0.6,0-1.2-0.3-1.6-0.8
				s-0.5-1.1-0.4-1.7l7.7-30.9c0.2-0.9,1-1.5,1.9-1.5c0,0,16.9-0.1,17-0.1c0.6,0,1.2,0.3,1.6,0.7c0.4,0.5,0.5,1.1,0.4,1.7l-0.5,2.2
				l2.4-3.7c0.4-0.6,1-0.9,1.7-0.9h19.4c0.8,0,1.5,0.5,1.8,1.2c0.3,0.7,0.1,1.6-0.4,2.2l-14,14.3l5.5,14.6c0.2,0.6,0.1,1.3-0.2,1.8
				c-0.4,0.5-1,0.9-1.6,0.9C143.5,120.6,123.6,120.4,123.6,120.4z"/>
			<path class="st14" d="M152.5,87.5l-14.9,15.2l5.9,15.8l-19.9-0.1l-0.7-13.2l-3.9,13.3h-16.3l7.7-30.9l16.9-0.1l-2.8,12.8
				l8.4-12.8H152.5 M127.4,83.5C127.4,83.5,127.4,83.5,127.4,83.5l-17,0.1c-1.8,0-3.4,1.3-3.9,3l-7.7,30.9c-0.3,1.2,0,2.5,0.7,3.4
				c0.8,1,1.9,1.5,3.2,1.5H119c0.9,0,1.7-0.3,2.4-0.8c0.6,0.4,1.4,0.6,2.2,0.7l19.9,0.1c0,0,0,0,0,0c1.3,0,2.5-0.6,3.3-1.7
				c0.8-1.1,0.9-2.5,0.5-3.7l-5-13.4l13.1-13.4c1.1-1.2,1.5-2.9,0.8-4.3c-0.6-1.5-2.1-2.4-3.7-2.4H133c-1.1,0-2,0.4-2.8,1.1
				C129.5,83.9,128.5,83.5,127.4,83.5L127.4,83.5z"/>
		</g>
		<polygon class="st12" points="191.9,87.7 183.7,118.3 199.6,118.3 205.7,95 204.1,118.6 219.3,118.6 229.4,95.7 223.7,118.5 
			239.4,118.5 247.8,87.6 222.9,87.6 213.1,113.2 216.5,87.6 191.9,87.7 		"/>
		<g>
			<path class="st3" d="M204.1,120.6c-0.6,0-1.1-0.2-1.5-0.6c-0.4-0.4-0.6-1-0.5-1.5l0.2-2.4l-0.7,2.8c-0.2,0.9-1,1.5-1.9,1.5h-16
				c-0.6,0-1.2-0.3-1.6-0.8c-0.4-0.5-0.5-1.1-0.3-1.7l8.3-30.7c0.2-0.9,1-1.5,1.9-1.5l24.6,0c0.6,0,1.1,0.2,1.5,0.7s0.6,1,0.5,1.6
				l-1.2,8.8l3.8-9.8c0.3-0.8,1-1.3,1.9-1.3h24.9c0.6,0,1.2,0.3,1.6,0.8c0.4,0.5,0.5,1.1,0.3,1.7l-8.4,30.8c-0.2,0.9-1,1.5-1.9,1.5
				h-15.7c-0.6,0-1.2-0.3-1.6-0.8c-0.4-0.5-0.5-1.1-0.4-1.7l0-0.1l-0.7,1.5c-0.3,0.7-1,1.2-1.8,1.2H204.1z"/>
			<path class="st14" d="M247.8,87.6l-8.4,30.8h-15.7l5.6-22.8l-10,22.9h-15.2l1.6-23.5l-6.1,23.3h-16l8.3-30.7l24.6,0l-3.4,25.6
				l9.8-25.6H247.8 M216.5,83.6C216.5,83.6,216.5,83.6,216.5,83.6l-24.6,0c-1.8,0-3.4,1.2-3.9,3l-8.3,30.7c-0.3,1.2-0.1,2.5,0.7,3.5
				c0.8,1,1.9,1.6,3.2,1.6h16c0.7,0,1.5-0.2,2.1-0.6c0.7,0.5,1.5,0.8,2.4,0.8h15.2c0.8,0,1.6-0.3,2.3-0.7c0.6,0.4,1.4,0.6,2.1,0.6
				h15.7c1.8,0,3.4-1.2,3.9-2.9l8.4-30.8c0.3-1.2,0.1-2.5-0.7-3.5c-0.8-1-1.9-1.6-3.2-1.6h-24.9c-1.3,0-2.5,0.6-3.2,1.6
				c-0.1-0.1-0.1-0.2-0.2-0.3C218.7,84.1,217.6,83.6,216.5,83.6L216.5,83.6z"/>
		</g>
		<polygon class="st12" points="251.3,87.7 243.1,118.3 259,118.3 265.1,95 263.5,118.6 278.8,118.6 288.8,95.7 283.2,118.5 
			298.8,118.5 307.2,87.6 282.3,87.6 272.5,113.2 275.9,87.6 251.3,87.7 		"/>
		<g>
			<path class="st3" d="M263.5,120.6c-0.6,0-1.1-0.2-1.5-0.6c-0.4-0.4-0.6-1-0.5-1.5l0.2-2.4l-0.7,2.8c-0.2,0.9-1,1.5-1.9,1.5h-16
				c-0.6,0-1.2-0.3-1.6-0.8c-0.4-0.5-0.5-1.1-0.3-1.7l8.3-30.7c0.2-0.9,1-1.5,1.9-1.5l24.6,0c0.6,0,1.1,0.2,1.5,0.7s0.6,1,0.5,1.6
				l-1.2,8.8l3.8-9.8c0.3-0.8,1-1.3,1.9-1.3h24.9c0.6,0,1.2,0.3,1.6,0.8c0.4,0.5,0.5,1.1,0.3,1.7l-8.4,30.8c-0.2,0.9-1,1.5-1.9,1.5
				h-15.7c-0.6,0-1.2-0.3-1.6-0.8c-0.4-0.5-0.5-1.1-0.4-1.7l0-0.1l-0.7,1.5c-0.3,0.7-1,1.2-1.8,1.2H263.5z"/>
			<path class="st14" d="M307.2,87.6l-8.4,30.8h-15.7l5.6-22.8l-10,22.9h-15.2l1.6-23.5l-6.1,23.3h-16l8.3-30.7l24.6,0l-3.4,25.6
				l9.8-25.6H307.2 M275.9,83.6C275.9,83.6,275.9,83.6,275.9,83.6l-24.6,0c-1.8,0-3.4,1.2-3.9,3l-8.3,30.7c-0.3,1.2-0.1,2.5,0.7,3.5
				c0.8,1,1.9,1.6,3.2,1.6h16c0.7,0,1.5-0.2,2.1-0.6c0.7,0.5,1.5,0.8,2.4,0.8h15.2c0.8,0,1.6-0.3,2.3-0.7c0.6,0.4,1.4,0.6,2.1,0.6
				h15.7c1.8,0,3.4-1.2,3.9-2.9l8.4-30.8c0.3-1.2,0.1-2.5-0.7-3.5c-0.8-1-1.9-1.6-3.2-1.6h-24.9c-1.3,0-2.5,0.6-3.2,1.6
				c-0.1-0.1-0.1-0.2-0.2-0.3C278.1,84.1,277,83.6,275.9,83.6L275.9,83.6z"/>
		</g>
		<path class="st13" d="M144.7,104c5.8-18,36-18,39.9-7.7C188.5,123.6,140,127.3,144.7,104L144.7,104z M169.2,100
			c-0.4,7-7.5,11.6-8.8,7.5C160.8,100.7,167.3,97,169.2,100L169.2,100z"/>
		<g>
			<path class="st3" d="M160.6,121.3c-6.7,0-12.3-2.2-15.4-6.1c-2.5-3.1-3.4-7.1-2.4-11.7c0-0.1,0-0.1,0.1-0.2
				c3.8-11.9,16.5-16.1,26.2-16.1c8.7,0,15.6,3.2,17.5,8.2c0.1,0.1,0.1,0.3,0.1,0.4c0.9,6.2-0.7,11.9-4.6,16.4
				C177.2,117.9,169,121.3,160.6,121.3z M167.1,100.9c-1.5,0.1-4.2,2.4-4.7,6.1C163.6,107,166.4,104.6,167.1,100.9z"/>
			<path class="st14" d="M169,89.3c7.4,0,13.9,2.5,15.6,7c2.2,15.2-11.9,23.1-24,23.1c-9.6,0-18-5-15.9-15.3
				C148,93.8,159.2,89.3,169,89.3 M162.4,109c2.6,0,6.6-3.9,6.8-9.1c-0.5-0.7-1.2-1-2-1c-2.7,0-6.5,3.4-6.8,8.5
				C160.7,108.6,161.4,109,162.4,109 M169,85.3v4V85.3L169,85.3c-10.4,0-24,4.6-28.1,17.5c0,0.1-0.1,0.3-0.1,0.4
				c-1.3,6.5,0.8,10.8,2.9,13.3c3.5,4.3,9.7,6.8,17,6.8c9,0,17.7-3.7,22.9-9.7c4.3-4.9,6-11.1,5-18c0-0.3-0.1-0.6-0.2-0.8
				C186.1,89,178.7,85.3,169,85.3L169,85.3z"/>
		</g>
	</g>
</g>
<g id="Layer_3">
	<g>
		<path class="st8" d="M134.4-171.8c34.6,38.8,4.5,38-6.7,59.1C88.1-141.9,133.5-150.4,134.4-171.8L134.4-171.8z"/>
		<g>
			<path class="st3" d="M134.4-171.8c34.6,38.8,4.5,38-6.7,59.1C88.1-141.9,133.5-150.4,134.4-171.8L134.4-171.8z"/>
		</g>
		<path class="st8" d="M118-152.5c-47,21.9-41.3,43.3,12.4,44.3C102-121.7,103.4-136,118-152.5L118-152.5z"/>
		<g>
			<path class="st3" d="M118-152.5c-47,21.9-41.3,43.3,12.4,44.3C102-121.7,103.4-136,118-152.5L118-152.5z"/>
		</g>
		<path class="st8" d="M152.1-148.3c21.1,9.3,13.6,33-1.3,35.3c-6.1,0.9-13.3,1.7-18.5,4.4C133.5-122.9,162.5-130.9,152.1-148.3
			L152.1-148.3z"/>
		<g>
			<path class="st3" d="M152.1-148.3c21.1,9.3,13.6,33-1.3,35.3c-6.1,0.9-13.3,1.7-18.5,4.4C133.5-122.9,162.5-130.9,152.1-148.3
				L152.1-148.3z"/>
		</g>
		<path class="st9" d="M200.1-116.2c33.1,0.9,63.3,7.6,84.3,28.7c6.4,9.6,5.5,18.6-2.8,27.1C223.1-21,98.8-29.2,56.6-57.1
			c-15.2-10.7-14.2-11.8,2-7.1C130-31.6,218-36,274.3-64.7c8.4-6.8,6.9-14.9-1.6-22.4c-17.1-14.6-43-19.7-72.7-20.6L200.1-116.2
			L200.1-116.2z"/>
		<path class="st10" d="M200.1-116.1c-2.7-2.5-5.5-2.5-8.5-0.2c-2.6-2.8-6.1-3.2-9,0l-7.9-0.3c-3.7-3.7-7.6-3.1-11.9,1.2l-0.3,6.7
			c3.2,4.6,7.4,5,11.6,2.7l8.5,0.3c2.4,1.6,5.2,1.9,8.8-0.5c3.7,2,6.6,1.8,8.5-1.7L200.1-116.1L200.1-116.1z M174.2-106.3l0.1-10.3
			 M182.7-116.6l-0.1,10.3 M191.7-116.4l0,9.9"/>
		<polygon class="st11" points="67.5,-100.7 40.8,-100.8 15.1,-100.8 4.7,-62.4 32,-62.3 55.5,-62.3 55.5,-62.3 76.6,-62.4 
			82.1,-62.3 98.9,-62.3 100.6,-62.3 122.8,-62.3 122.8,-62.4 149.8,-62.3 148.9,-64.7 150.3,-63.9 152.3,-63.1 154.4,-62.4 
			156.6,-61.9 158.8,-61.6 161.1,-61.5 163.5,-61.6 165.8,-61.8 168.1,-62.2 170.4,-62.7 172.7,-63.4 174.9,-64.3 177.1,-65.4 
			179.2,-66.6 181.1,-68.1 181.2,-68.1 179.7,-62.5 200.4,-62.5 204.9,-62.3 222.8,-62.3 222.8,-62.4 243.2,-62.4 243.3,-62.5 
			259.9,-62.5 264.4,-62.3 282.2,-62.3 282.2,-62.4 302.6,-62.4 313.1,-100.7 276.8,-100.7 253.7,-100.7 253.7,-100.7 217.4,-100.7 
			190,-100.7 187.7,-92.2 187.5,-92.4 186.5,-93.6 185.3,-94.7 184,-95.6 182.7,-96.3 181.2,-97 179.7,-97.6 178.1,-98 176.5,-98.4 
			174.8,-98.7 173.1,-98.9 171.3,-99 169.6,-99 167.7,-99 165.9,-98.8 164.1,-98.6 162.3,-98.2 160.4,-97.8 158.9,-97.3 
			162.3,-100.8 128.4,-100.8 111.2,-100.7 111.3,-101 86.6,-101 86.6,-100.8 84.9,-100.7 67.5,-100.5 67.5,-100.7 		"/>
		<polygon class="st12" points="18,-97.1 35.5,-97.1 28.9,-75.4 40.8,-97.1 62.7,-97 54.7,-66.1 38.1,-66.1 43.9,-88.2 32,-66.1 
			9.6,-66.2 18,-97.1 		"/>
		<g>
			<polygon class="st3" points="18,-97.1 35.5,-97.1 28.9,-75.4 40.8,-97.1 62.7,-97 54.7,-66.1 38.1,-66.1 43.9,-88.2 32,-66.1 
				9.6,-66.2 18,-97.1 			"/>
		</g>
		<polygon class="st12" points="68.5,-96.8 60.4,-66.1 76.7,-66.2 79.4,-77.7 84.3,-77.5 82.1,-66.1 97.7,-66.1 106.3,-97.2 
			89.6,-97.2 87.4,-86.7 82.7,-86.6 85,-97 68.5,-96.8 		"/>
		<g>
			<polygon class="st3" points="68.5,-96.8 60.4,-66.1 76.7,-66.2 79.4,-77.7 84.3,-77.5 82.1,-66.1 97.7,-66.1 106.3,-97.2 
				89.6,-97.2 87.4,-86.7 82.7,-86.6 85,-97 68.5,-96.8 			"/>
		</g>
		<polygon class="st12" points="111.5,-97 103.7,-66.1 120,-66.1 123.8,-79.4 124.5,-66.2 144.4,-66.1 138.5,-81.9 153.4,-97.1 
			134,-97.1 125.6,-84.2 128.4,-97.1 111.5,-97 		"/>
		<g>
			<polygon class="st3" points="111.5,-97 103.7,-66.1 120,-66.1 123.8,-79.4 124.5,-66.2 144.4,-66.1 138.5,-81.9 153.4,-97.1 
				134,-97.1 125.6,-84.2 128.4,-97.1 111.5,-97 			"/>
		</g>
		<polygon class="st12" points="192.9,-97 184.6,-66.3 200.6,-66.3 206.7,-89.6 205.1,-66 220.3,-66 230.3,-89 224.7,-66.1 
			240.4,-66.1 248.7,-97 223.9,-97 214.1,-71.4 217.4,-97 192.9,-97 		"/>
		<g>
			<polygon class="st3" points="192.9,-97 184.6,-66.3 200.6,-66.3 206.7,-89.6 205.1,-66 220.3,-66 230.3,-89 224.7,-66.1 
				240.4,-66.1 248.7,-97 223.9,-97 214.1,-71.4 217.4,-97 192.9,-97 			"/>
		</g>
		<polygon class="st12" points="252.3,-97 244,-66.3 260,-66.3 266.1,-89.6 264.5,-66 279.7,-66 289.7,-89 284.1,-66.1 299.8,-66.1 
			308.2,-97 283.3,-97 273.5,-71.4 276.8,-97 252.3,-97 		"/>
		<g>
			<polygon class="st3" points="252.3,-97 244,-66.3 260,-66.3 266.1,-89.6 264.5,-66 279.7,-66 289.7,-89 284.1,-66.1 299.8,-66.1 
				308.2,-97 283.3,-97 273.5,-71.4 276.8,-97 252.3,-97 			"/>
		</g>
		<path class="st13" d="M145.7-80.6c5.8-18,36-18,39.9-7.7C189.5-61.1,140.9-57.3,145.7-80.6L145.7-80.6z M170.2-84.6
			c-0.4,7-7.5,11.6-8.8,7.5C161.8-83.9,168.3-87.6,170.2-84.6L170.2-84.6z"/>
		<g>
			<path class="st3" d="M145.7-80.6c5.8-18,36-18,39.9-7.7C189.5-61.1,140.9-57.3,145.7-80.6L145.7-80.6z M170.2-84.6
				c-0.4,7-7.5,11.6-8.8,7.5C161.8-83.9,168.3-87.6,170.2-84.6L170.2-84.6z"/>
		</g>
	</g>
</g>
<g id="Layer_4">
	<path class="st15" d="M135.8,10c34.6,38.8,4.5,38-6.7,59.1C89.5,40,134.9,31.5,135.8,10L135.8,10z"/>
	<path class="st15" d="M119.4,29.4c-47,21.9-41.3,43.3,12.4,44.3C103.4,60.2,104.8,45.9,119.4,29.4L119.4,29.4z"/>
	<path class="st15" d="M153.5,33.6c21.1,9.3,13.6,33-1.3,35.3c-6.1,0.9-13.3,1.7-18.5,4.4C134.9,59,163.9,51,153.5,33.6L153.5,33.6z
		"/>
	<path class="st9" d="M201.5,65.6c33.1,0.9,63.3,7.6,84.3,28.7c6.4,9.6,5.5,18.6-2.8,27.1c-58.6,39.4-183,31.2-225.1,3.3
		c-15.2-10.7-14.2-11.8,2-7.1c71.3,32.6,159.3,28.2,215.6-0.5c8.4-6.8,6.9-14.9-1.6-22.4c-17.1-14.6-43-19.7-72.7-20.6L201.5,65.6
		L201.5,65.6z"/>
	<path class="st16" d="M201.5,65.7c-2.7-2.5-5.5-2.5-8.5-0.2c-2.6-2.8-6.1-3.2-9,0l-7.9-0.3c-3.7-3.7-7.6-3.1-11.9,1.2l-0.3,6.7
		c3.2,4.6,7.4,5,11.6,2.7l8.5,0.3c2.4,1.6,5.2,1.9,8.8-0.5c3.7,2,6.6,1.8,8.5-1.7L201.5,65.7L201.5,65.7z M171.5,97.2
		c-0.4,7-7.5,11.6-8.8,7.5C163.1,97.9,169.7,94.3,171.5,97.2L171.5,97.2z M175.6,75.6l0.1-10.3 M184.1,65.3L184,75.7 M193.1,65.5
		l0,9.9"/>
	<polygon class="st7" points="19.4,84.8 36.9,84.8 30.3,106.5 42.1,84.8 64.1,84.9 56.1,115.8 39.5,115.8 45.3,93.6 33.4,115.8 
		11,115.7 19.4,84.8 	"/>
	<polygon class="st15" points="19.4,84.8 36.9,84.8 30.3,106.5 42.1,84.8 64.1,84.9 56.1,115.8 39.5,115.8 45.3,93.6 33.4,115.8 
		11,115.7 19.4,84.8 	"/>
	<polygon class="st7" points="69.9,85.1 61.8,115.8 78.1,115.7 80.8,104.2 85.7,104.3 83.5,115.8 99.1,115.8 107.7,84.7 91,84.7 
		88.7,95.1 84.1,95.2 86.4,84.9 69.9,85.1 	"/>
	<polygon class="st17" points="69.9,85.1 61.8,115.8 78.1,115.7 80.8,104.2 85.7,104.3 83.5,115.8 99.1,115.8 107.7,84.7 91,84.7 
		88.7,95.1 84.1,95.2 86.4,84.9 69.9,85.1 	"/>
	<polygon class="st7" points="112.8,84.9 105.1,115.8 121.4,115.8 125.2,102.5 125.9,115.7 145.8,115.8 139.9,100 154.8,84.8 
		135.4,84.8 126.9,97.6 129.8,84.8 112.8,84.9 	"/>
	<polygon class="st17" points="112.8,84.9 105.1,115.8 121.4,115.8 125.2,102.5 125.9,115.7 145.8,115.8 139.9,100 154.8,84.8 
		135.4,84.8 126.9,97.6 129.8,84.8 112.8,84.9 	"/>
	<polygon class="st7" points="194.2,84.9 186,115.6 201.9,115.6 208.1,92.3 206.4,115.8 221.7,115.8 231.7,92.9 226.1,115.7 
		241.7,115.7 250.1,84.9 225.3,84.9 215.4,110.5 218.8,84.9 194.2,84.9 	"/>
	<polygon class="st15" points="194.2,84.9 186,115.6 201.9,115.6 208.1,92.3 206.4,115.8 221.7,115.8 231.7,92.9 226.1,115.7 
		241.7,115.7 250.1,84.9 225.3,84.9 215.4,110.5 218.8,84.9 194.2,84.9 	"/>
	<polygon class="st7" points="253.7,84.9 245.4,115.6 261.4,115.6 267.5,92.3 265.9,115.8 281.1,115.8 291.1,92.9 285.5,115.7 
		301.2,115.7 309.5,84.9 284.7,84.9 274.9,110.5 278.2,84.9 253.7,84.9 	"/>
	<polygon class="st15" points="253.7,84.9 245.4,115.6 261.4,115.6 267.5,92.3 265.9,115.8 281.1,115.8 291.1,92.9 285.5,115.7 
		301.2,115.7 309.5,84.9 284.7,84.9 274.9,110.5 278.2,84.9 253.7,84.9 	"/>
	<path class="st18" d="M147.1,101.3c5.8-18,36-18,39.9-7.7C190.9,120.8,142.3,124.5,147.1,101.3L147.1,101.3z M171.5,97.2
		c-0.4,7-7.5,11.6-8.8,7.5C163.1,97.9,169.7,94.3,171.5,97.2L171.5,97.2z"/>
	<path class="st19" d="M147.1,101.3c5.8-18,36-18,39.9-7.7C190.9,120.8,142.3,124.5,147.1,101.3L147.1,101.3z M171.5,97.2
		c-0.4,7-7.5,11.6-8.8,7.5C163.1,97.9,169.7,94.3,171.5,97.2L171.5,97.2z"/>
</g>
</svg>
